<?xml version="1.0" encoding="UTF-8"?>
<svg version="1.1" xmlns="http://www.w3.org/2000/svg" width="350" height="350">
<path d="M0 0 C0.68112854 0.0227298 1.36225708 0.04545959 2.06402588 0.06887817 C43.91276126 1.46945051 43.91276126 1.46945051 52.47265625 9.09765625 C58.63361585 15.74301562 60.20836507 23.44153325 60.91796875 32.2109375 C60.99734177 33.12096527 61.07671478 34.03099304 61.15849304 34.96859741 C61.89792506 44.13327102 62.08803888 53.2834006 62.06567383 62.47460938 C62.06249191 65.19441123 62.0862002 67.91314171 62.11132812 70.6328125 C62.1446729 79.48022607 61.78676198 88.13938909 60.48046875 96.8984375 C60.37237381 97.65516754 60.26427887 98.41189758 60.15290833 99.19155884 C58.86722756 106.84534957 55.96678926 113.43891732 49.80859375 118.3125 C41.23646966 123.51758484 30.55343601 123.72573485 20.82421875 124.09765625 C19.23272758 124.16212196 19.23272758 124.16212196 17.60908508 124.22789001 C15.36242901 124.31792263 13.11569627 124.40605957 10.86889648 124.49243164 C7.48723061 124.62307871 4.10593568 124.76126275 0.72460938 124.90039062 C-18.54420445 125.67439992 -37.5950177 125.59940953 -56.86328125 124.81787109 C-60.14036789 124.68688574 -63.41776048 124.567914 -66.6953125 124.44921875 C-68.81513329 124.36531597 -70.93492622 124.28070548 -73.0546875 124.1953125 C-74.01639862 124.16188751 -74.97810974 124.12846252 -75.96896362 124.09402466 C-86.99015984 123.61889968 -98.59188373 122.81447605 -106.5625 114.375 C-116.12694478 102.06304534 -114.55480092 82.69294052 -114.45581055 67.93823242 C-114.43754918 65.13255657 -114.43530185 62.32721362 -114.43554688 59.52148438 C-114.35862975 18.39299032 -114.35862975 18.39299032 -104.30859375 8.1484375 C-95.99414819 1.74300126 -85.74208119 1.4254276 -75.68359375 1.02734375 C-74.13962669 0.96287804 -74.13962669 0.96287804 -72.56446838 0.89710999 C-70.38167843 0.80705673 -68.19880863 0.7189211 -66.01586914 0.63256836 C-62.75053835 0.50251081 -59.48564613 0.36402257 -56.22070312 0.22460938 C-37.45875172 -0.55121655 -18.76585075 -0.64234321 0 0 Z " fill="#FF0000" transform="translate(201.25,112.4375)"/>
<path d="M0 0 C3.86422376 1.5456895 7.02489217 3.08418759 10.5625 5.1875 C12.14224609 6.12142578 12.14224609 6.12142578 13.75390625 7.07421875 C14.82511719 7.70972656 15.89632812 8.34523437 17 9 C18.99897017 10.1684303 20.99895173 11.33513222 23 12.5 C23.97839844 13.07105469 24.95679688 13.64210937 25.96484375 14.23046875 C28.08091214 15.46416113 30.19819504 16.69577168 32.31640625 17.92578125 C33.38761719 18.54839844 34.45882812 19.17101562 35.5625 19.8125 C37.01849609 20.65748047 37.01849609 20.65748047 38.50390625 21.51953125 C40.3690035 22.62574699 42.19571644 23.79714429 44 25 C44 25.66 44 26.32 44 27 C42.234375 28.26171875 42.234375 28.26171875 39.75 29.6875 C38.83476562 30.21859375 37.91953125 30.7496875 36.9765625 31.296875 C35.99429688 31.85890625 35.01203125 32.4209375 34 33 C32.04110679 34.14487592 30.08278218 35.29072521 28.125 36.4375 C25.03570052 38.23628235 21.94469885 40.03204174 18.8515625 41.82421875 C14.31122733 44.46035794 9.79585066 47.10464443 5.375 49.9375 C2 52 2 52 0 52 C0 34.84 0 17.68 0 0 Z " fill="#FFF7F7" transform="translate(157,149)"/>
</svg>
